<svg fill="#fbf9f9" height="24px" width="24px" version="1.1" id="Capa_1" xmlns="http://www.w3.org/2000/svg" xmlns:xlink="http://www.w3.org/1999/xlink" viewBox="0 0 60 60" xml:space="preserve"><g id="SVGRepo_bgCarrier" stroke-width="0"></g><g id="SVGRepo_tracerCarrier" stroke-linecap="round" stroke-linejoin="round"></g><g id="SVGRepo_iconCarrier"> <g> <path d="M14,47v9.536C14,58.446,15.554,60,17.464,60h25.072C44.446,60,46,58.446,46,56.536V47H14z"></path> <path d="M46,45V7.464C46,5.554,44.446,4,42.536,4H36V0H24v4h-6.536C15.554,4,14,5.554,14,7.464V45H46z M16,7.464 C16,6.656,16.656,6,17.464,6H24h12h6.536C43.344,6,44,6.656,44,7.464V31H16V7.464z"></path> </g> </g></svg>